<svg width="1200" height="630" viewBox="0 0 1200 630" xmlns="http://www.w3.org/2000/svg">
  <defs>
    <linearGradient id="bg" x1="0" y1="0" x2="1200" y2="630" gradientUnits="userSpaceOnUse">
      <stop offset="0%" stop-color="#04050a"/>
      <stop offset="100%" stop-color="#0b0d17"/>
    </linearGradient>
    <linearGradient id="g1" x1="0" y1="0" x2="700" y2="0" gradientUnits="userSpaceOnUse">
      <stop offset="0%" stop-color="#5b8aff"/>
      <stop offset="50%" stop-color="#a259ff"/>
      <stop offset="100%" stop-color="#00e5c8"/>
    </linearGradient>
    <radialGradient id="gl1" cx="40%" cy="50%" r="55%">
      <stop offset="0%" stop-color="#5b8aff" stop-opacity="0.13"/>
      <stop offset="100%" stop-color="#5b8aff" stop-opacity="0"/>
    </radialGradient>
    <radialGradient id="gl2" cx="85%" cy="55%" r="40%">
      <stop offset="0%" stop-color="#a259ff" stop-opacity="0.10"/>
      <stop offset="100%" stop-color="#a259ff" stop-opacity="0"/>
    </radialGradient>
  </defs>
  <rect width="1200" height="630" fill="url(#bg)"/>
  <rect width="1200" height="630" fill="url(#gl1)"/>
  <rect width="1200" height="630" fill="url(#gl2)"/>
  <g stroke="rgba(255,255,255,0.035)" stroke-width="1">
    <line x1="0" y1="126" x2="1200" y2="126"/><line x1="0" y1="252" x2="1200" y2="252"/>
    <line x1="0" y1="378" x2="1200" y2="378"/><line x1="0" y1="504" x2="1200" y2="504"/>
    <line x1="240" y1="0" x2="240" y2="630"/><line x1="480" y1="0" x2="480" y2="630"/>
    <line x1="720" y1="0" x2="720" y2="630"/><line x1="960" y1="0" x2="960" y2="630"/>
  </g>
  <circle cx="150" cy="70" r="1.8" fill="rgba(200,210,255,0.55)"/>
  <circle cx="380" cy="40" r="1.2" fill="rgba(200,210,255,0.4)"/>
  <circle cx="600" cy="100" r="2" fill="rgba(200,210,255,0.5)"/>
  <circle cx="820" cy="55" r="1.5" fill="rgba(200,210,255,0.6)"/>
  <circle cx="1080" cy="85" r="1.2" fill="rgba(200,210,255,0.45)"/>
  <circle cx="1160" cy="190" r="2" fill="rgba(200,210,255,0.5)"/>
  <circle cx="90" cy="420" r="1.5" fill="rgba(200,210,255,0.4)"/>
  <circle cx="1100" cy="510" r="2" fill="rgba(200,210,255,0.5)"/>
  <circle cx="960" cy="360" r="1.2" fill="rgba(200,210,255,0.4)"/>
  <circle cx="220" cy="560" r="1.5" fill="rgba(200,210,255,0.5)"/>
  <circle cx="50" cy="280" r="1" fill="rgba(200,210,255,0.35)"/>
  <circle cx="700" cy="580" r="1.5" fill="rgba(200,210,255,0.4)"/>
  <g transform="translate(1000,310)" opacity="0.22">
    <ellipse rx="168" ry="168" fill="none" stroke="#5b8aff" stroke-width="1.2" transform="rotate(-25)"/>
    <ellipse rx="114" ry="114" fill="none" stroke="#a259ff" stroke-width="1" transform="rotate(12)"/>
    <ellipse rx="66" ry="66" fill="none" stroke="#00e5c8" stroke-width="1"/>
    <circle r="20" fill="url(#g1)" opacity="0.85"/>
    <circle r="6" fill="#fff" opacity="0.6"/>
  </g>
  <rect x="0" y="0" width="1200" height="3" fill="url(#g1)"/>
  <circle cx="108" cy="290" r="26" fill="none" stroke="url(#g1)" stroke-width="1.5" opacity="0.7"/>
  <circle cx="108" cy="290" r="9" fill="url(#g1)" opacity="0.95"/>
  <text x="150" y="260" font-family="'Courier New',monospace" font-size="16" fill="#00e5c8" letter-spacing="8" opacity="0.95">✦  ORION HUB</text>
  <text x="148" y="355" font-family="'Arial Black','Impact',sans-serif" font-size="92" font-weight="900" fill="white" letter-spacing="-4">Everything</text>
  <text x="148" y="455" font-family="'Arial Black','Impact',sans-serif" font-size="92" font-weight="900" fill="url(#g1)" letter-spacing="-4">in one orbit.</text>
  <text x="151" y="506" font-family="'Courier New',monospace" font-size="18" fill="rgba(107,114,153,0.95)" letter-spacing="1.5">Central launchpad for all apps &amp; projects  ·  100% Free</text>
  <rect x="148" y="538" width="108" height="32" rx="16" fill="rgba(0,229,200,0.1)" stroke="rgba(0,229,200,0.35)" stroke-width="1"/>
  <text x="202" y="559" font-family="'Courier New',monospace" font-size="12" fill="#00e5c8" text-anchor="middle" letter-spacing="2">● LIVE</text>
  <rect x="270" y="538" width="144" height="32" rx="16" fill="rgba(91,138,255,0.1)" stroke="rgba(91,138,255,0.35)" stroke-width="1"/>
  <text x="342" y="559" font-family="'Courier New',monospace" font-size="12" fill="#5b8aff" text-anchor="middle" letter-spacing="1.5">FREE APPS</text>
  <rect x="428" y="538" width="168" height="32" rx="16" fill="rgba(162,89,255,0.1)" stroke="rgba(162,89,255,0.35)" stroke-width="1"/>
  <text x="512" y="559" font-family="'Courier New',monospace" font-size="12" fill="#a259ff" text-anchor="middle" letter-spacing="1.5">OPEN SOURCE</text>
  <rect x="0" y="627" width="1200" height="3" fill="url(#g1)" opacity="0.35"/>
</svg>
